<svg xmlns="http://www.w3.org/2000/svg" width="79" height="79" fill="none" viewBox="0 0 79 79">
    <g filter="url(#filter0_d)">
        <circle cx="37.5" cy="35.5" r="29.5" fill="url(#paint0_linear)"/>
    </g>
    <path stroke="#F2F2F2" stroke-linecap="round" stroke-linejoin="round" stroke-width="2" d="M47.334 38.77v6.563c0 .652-.26 1.277-.72 1.739-.462.46-1.087.72-1.739.72H27.667c-.652 0-1.277-.26-1.739-.72-.46-.462-.72-1.087-.72-1.739V28.125c0-.652.26-1.277.72-1.738.462-.462 1.087-.72 1.739-.72h6.564"/>
    <path stroke="#F2F2F2" stroke-linecap="round" stroke-linejoin="round" stroke-width="2" d="M43.646 23.209l4.916 4.916-12.291 12.292h-4.917V35.5L43.646 23.21z"/>
    <defs>
        <linearGradient id="paint0_linear" x1="37.5" x2="37.5" y1="6" y2="87.74" gradientUnits="userSpaceOnUse">
            <stop stop-color="#6FCF97"/>
            <stop offset="1" stop-color="#56CCF2"/>
        </linearGradient>
        <filter id="filter0_d" width="79" height="79" x="0" y="0" color-interpolation-filters="sRGB" filterUnits="userSpaceOnUse">
            <feFlood flood-opacity="0" result="BackgroundImageFix"/>
            <feColorMatrix in="SourceAlpha" values="0 0 0 0 0 0 0 0 0 0 0 0 0 0 0 0 0 0 127 0"/>
            <feOffset dx="2" dy="4"/>
            <feGaussianBlur stdDeviation="5"/>
            <feColorMatrix values="0 0 0 0 0 0 0 0 0 0 0 0 0 0 0 0 0 0 0.2 0"/>
            <feBlend in2="BackgroundImageFix" result="effect1_dropShadow"/>
            <feBlend in="SourceGraphic" in2="effect1_dropShadow" result="shape"/>
        </filter>
    </defs>
</svg>
