<svg xmlns="http://www.w3.org/2000/svg" width="336" height="505" fill="none" viewBox="0 0 336 505">
    <g clip-path="url(#clip0)" filter="url(#filter0_d)">
        <path fill="#6FCF97" d="M316.973 298.885c-.268-1.045-.669-3.752-.964-5.896-.187-1.313-1.713-1.93-2.758-1.099l-6.399 5.012c-1.071.83-2.651.16-2.758-1.206l.562-2.68c.509-2.493-.187-5.065-1.901-6.915-1.955-2.09-4.07-5.708-3.294-11.389.134-1.019.241-16.563 1.312-18.412 4.178-7.263 6.587-7.665 5.222-15.436-.188-1.153-2.678-6.566-3.561-8.71-.215-.536-.723-.938-1.286-1.019l-7.845-1.34c-.83-.134-1.419-.857-1.419-1.688l.08-22.244c0-.777-.509-1.447-1.259-1.661l-10.094-2.734c-.375-.107-.723-.322-.937-.643-1.232-1.688-5.168-7.209-5.168-7.799 0-.616 4.284-6.378 5.301-7.772.134-.187.322-.348.536-.482 1.366-.75 1.098-2.787-.428-3.162l-5.757-1.421c-.081-.027-.134-.027-.215-.027l-14.539-1.608c-.188-.026-.375-.08-.536-.16l-7.551-3.484c-.375-.188-.803-.215-1.205-.108l-5.623 1.582c-1.017.294-1.553 1.447-1.071 2.412l1.044 2.144c.482 1.018-.107 2.197-1.204 2.438l-4.713.965c-.589.134-1.205-.08-1.607-.536l-3.427-3.779c-.455-.482-1.125-.67-1.767-.482l-2.223.67c.402 1.635.536 3.377.348 5.253-.883 8.79-12.183 1.581-15.664 9.299-2.33 5.173 1.071 9.809-2.33 13.373-2.249 2.359-6.506 3.163-9.291 1.742-3.347-1.715-2.356-5.601-5.221-6.968-3.294-1.581-8.114 1.903-13.362 5.816-4.739 3.511 2.303 9.246-1.473 13.078-9.13 9.273-18.743 2.573-22.599 11.899-1.901 4.636 0 3.993 4.82 11.015 5.168 7.504-6.587 16.991-2.624 23.825 4.07 6.994 30.766-1.85 8.515 25.995-.964 1.206-1.286 3.538-1.259 3.752.188 1.447 1.5 4.101 2.089 8.576.562 4.368 1.499 11.577 5.569 13.212 5.971 2.412 13.897 5.816 14.326 7.102.562 1.689 3.132 9.058 4.043 11.712.214.589.696 1.018 1.312 1.125l15.637 2.787c.108.027.188.027.295.027h7.417c2.838 0 5.57.992 7.765 2.787l4.204 3.484c.295.268.696.402 1.098.402h6.962c.857 0 4.632.777 6.399 1.179.59.134 1.205-.053 1.607-.509l3.561-3.805c1.366-1.474 3.428-2.117 5.409-1.689l4.338.965c1.232.268 2.517.107 3.642-.482l5.221-2.761c.75-.402 1.071-1.259.83-2.063-.509-1.528.589-2.895 1.874-3.806 3.508-2.465 9.345-1.768 13.308-2.224 1.018-.107 1.901.67 1.901 1.715v1.93c0 1.018.884 1.795 1.875 1.715l4.793-.483c.134-.026.294 0 .428 0l6.186 1.287c1.794.375 3.668.08 5.248-.858 1.312-.777 2.651-1.581 2.838-1.688 2.008-1.126 1.741-5.869.911-8.71-1.5-5.038 1.874-10.8 2.329-13.319.482-2.52 4.632-15.169 4.177-17.018z"/>
        <circle r="12.568" fill="#8F8F8F" fill-opacity=".4" transform="matrix(1 0 0 -1 226.568 265.648)"/>
        <path fill="#727272" d="M233.75 252.182c0-3.967-3.215-7.182-7.182-7.182-3.966 0-7.182 3.215-7.182 7.182 0 3.966 5.387 13.915 7.182 13.915 1.796 0 7.182-9.949 7.182-13.915z"/>
        <circle cx="226.568" cy="252.182" r="4.489" fill="#fff"/>
        <path fill="#4F4F4F" d="M232.508 267.908v1.44h-2.82v.804h2.82v1.416h.996v-6.432h-.996v1.968h-2.436c.072-.372.12-.768.12-1.164h-4.86v.792h3.792c-.18 1.86-1.776 3.288-4.344 4.056l.396.78c2.316-.672 3.948-1.932 4.644-3.66h2.688zm-2.52 7.164c-1.584 0-2.592-.492-2.592-1.308 0-.804 1.008-1.296 2.592-1.296s2.592.492 2.592 1.296c0 .816-1.008 1.308-2.592 1.308zm0-3.384c-2.172 0-3.564.78-3.564 2.076s1.392 2.076 3.564 2.076 3.564-.78 3.564-2.076-1.392-2.076-3.564-2.076zm11.903-1.5c-1.548-.528-2.604-1.872-2.604-3.324v-1.188h-.984v1.104c0 1.644-1.044 3.108-2.676 3.696l.516.78c1.26-.48 2.22-1.464 2.664-2.724.48 1.104 1.404 1.992 2.568 2.424l.516-.768zm-1.284 4.92c-1.596 0-2.568-.444-2.568-1.188 0-.756.972-1.2 2.568-1.2 1.584 0 2.556.444 2.556 1.2 0 .744-.972 1.188-2.556 1.188zm0-3.156c-2.196 0-3.552.708-3.552 1.968 0 1.248 1.356 1.956 3.552 1.956 2.184 0 3.54-.708 3.54-1.956 0-1.26-1.356-1.968-3.54-1.968zm3.42-4.044v-2.772h-.984v6.516h.984v-2.928h1.596v-.816h-1.596zm10.175.708h-5.232v-1.248h5.232v1.248zm.972-3.24h-.972v1.224h-5.232v-1.224h-.972v4.02h7.176v-4.02zm1.272 5.82v-.804h-9.744v.804h4.38v1.26h-3.288v.792h6.468v2.652h.984v-3.444h-3.18v-1.26h4.38zm6.671 2.52v-2.76h3.276v-.792h-6.42v-3.372h6.312v-.804h-7.296v4.968h3.132v2.76h-4.38v.816h9.78v-.816h-4.404z"/>
        <path fill="#68CFB2" d="M226.602 181.154c-.16-.054-.348-.107-.508-.161-.054 0-.081-.027-.134-.027-.161-.053-.348-.08-.509-.134-.027 0-.054-.026-.107-.026-.161-.027-.295-.081-.455-.108-.054 0-.107-.026-.161-.026-.161-.027-.348-.081-.509-.108-.08-.027-.16-.026-.241-.053-.08-.027-.187-.027-.267-.054-.375-.08-.75-.134-1.125-.214-.348-.054-.696-.134-1.044-.215-.456-.107-.911-.187-1.339-.321-.027 0-.081-.027-.107-.027-.375-.107-.75-.214-1.098-.348-.027 0-.054-.027-.08-.027-.215-.081-.402-.161-.616-.241-.027 0-.027-.027-.054-.027-.241-.107-.455-.215-.669-.322-.027-.027-.081-.053-.107-.053-.054-.027-.134-.081-.188-.108-.027-.026-.053-.053-.107-.053l-.241-.161-.027-.027c-.187-.134-.348-.268-.508-.429l-.081-.08c-.053-.054-.107-.107-.16-.188l-.054-.053c-.134-.161-.268-.349-.402-.536-.026-.027-.026-.054-.053-.081-.054-.08-.081-.16-.134-.214 0-.027-.027-.054-.027-.08-.053-.108-.107-.215-.161-.349-.026-.053-.053-.08-.08-.134l-.027-.027c-.026-.026-.053-.053-.08-.107l-.027-.027-.107-.107-.027-.027c-.026-.026-.08-.053-.107-.08-.026 0-.026-.027-.053-.027-.054-.027-.081-.053-.134-.08 0 0-.027 0-.027-.027-.053-.027-.107-.054-.187-.107-.027 0-.027-.027-.054-.027l-.161-.08c-.026 0-.026-.027-.053-.027-.107-.054-.214-.081-.321-.107h-.027c-.107-.027-.214-.081-.348-.108h-.027c-.107-.026-.241-.053-.348-.08h-.027l-.402-.08c-.08-.027-.16-.027-.241-.054-.107-.027-.214-.027-.321-.054h-.08c-.241-.026-.482-.08-.75-.107-.241-.027-.509-.053-.777-.107-.535-.054-1.071-.107-1.633-.161-.107 0-.214-.027-.294-.027-.188-.026-.402-.026-.589-.053-.375-.027-.777-.081-1.152-.107h-.027c-.187-.027-.375-.027-.562-.054-.134-.027-.295-.027-.428-.054h-.027c-.241-.026-.482-.053-.696-.08h-.027c-.777-.107-1.473-.241-2.035-.402h-.027c-.107-.027-.187-.054-.268-.08-.08-.027-.16-.054-.214-.081-.027 0-.027-.027-.053-.027-.375-.16-.67-.348-.804-.589-.053-.081-.08-.134-.107-.215v-.026c-.027-.108-.027-.215-.027-.322v-.054c0-.026 0-.053.027-.08 0-.027 0-.027.027-.054.027-.08.053-.134.107-.214l.027-.027c.08-.107.187-.241.321-.348l.027-.027c.08-.054.161-.134.241-.188l.027-.026c.589-.429 1.419-.858 2.276-1.314h.026c.134-.053.268-.134.375-.187.027 0 .027-.027.054-.027.107-.054.241-.134.348-.188 0 0 .027 0 .027-.026h.027l.321-.161c.107-.054.187-.107.294-.161 0 0 .027 0 .027-.027.08-.053.161-.08.241-.134.027 0 .054-.027.054-.027l.241-.16c.107-.054.187-.134.294-.215.027 0 .027-.027.054-.027.08-.053.16-.134.241-.187l.027-.027h.026c.081-.08.161-.134.215-.214l.026-.027c.054-.054.081-.107.134-.161.054-.054.081-.107.107-.161.027-.027.054-.08.054-.107.027-.08.08-.134.107-.214.027-.054.027-.108.027-.134 0-.054.027-.108.027-.161 0-.054-.001-.134-.027-.215v-.053c0-.027-.027-.054-.027-.081 0-.026-.027-.08-.027-.107-.027-.053-.053-.107-.08-.134 0-.027-.027-.027-.027-.053-.027-.027-.027-.054-.053-.081 0 0 0-.027-.027-.027 0-.026-.027-.026-.027-.053-.027-.054-.08-.107-.134-.161l-.348-.348c-.054-.054-.134-.107-.187-.161l-.054-.054c-.054-.053-.134-.08-.214-.134 0 0-.027 0-.027-.027-.027-.026-.054-.053-.107-.053-.054-.027-.107-.054-.161-.107-.027 0-.053-.027-.08-.027-.08-.054-.161-.08-.241-.134-.027 0-.027-.027-.054-.027l-.16-.08-.161-.081c-.027 0-.054-.026-.08-.026-.027-.027-.054-.027-.107-.054-.054-.027-.134-.054-.188-.107-.027 0-.053-.027-.08-.027-.107-.054-.241-.107-.348-.161h-.027c-.027 0-.054-.027-.08-.027-.107-.053-.241-.107-.348-.16-.027-.027-.081-.027-.108-.054-.133-.054-.294-.107-.455-.188-.027 0-.027-.026-.053-.026h-.027l-.402-.161c-.053-.027-.08-.027-.134-.054-.16-.053-.348-.134-.535-.187-.321-.108-.616-.215-.937-.322-.081-.027-.161-.054-.215-.08-.294-.081-.589-.188-.883-.268-.643-.188-1.259-.322-1.848-.456-.268-.054-.508-.107-.749-.134h-.027c-.054 0-.107-.027-.134-.027-.83-.134-1.607-.187-2.33-.187H195.086c-.107 0-.241.026-.348.026h-.134c-.107 0-.214.027-.348.027-.053 0-.08 0-.134.027-.16.027-.294.054-.428.08-.134.027-.268.054-.375.081-.134.027-.294.053-.428.107-.054 0-.081.027-.134.027-.107.027-.188.053-.268.08-.053 0-.08.027-.134.054h-.027c-.08.027-.187.053-.267.107-.027.027-.081.027-.107.054-.268.107-.536.214-.777.348-.027.027-.053.027-.08.054h-.027c-.134.08-.268.134-.375.214-.134.08-.241.161-.375.214-.027.027-.053.027-.08.054-.134.107-.295.188-.429.295l-.026.027c-.134.107-.268.187-.402.294-.08.054-.161.134-.241.188-.161.134-.321.268-.455.402-.08.08-.161.134-.241.214-.161.134-.295.268-.429.402-.16.161-.321.295-.455.456-.294.295-.616.589-.91.884l-.027.027c-.294.268-.589.536-.884.777-.374.295-.776.563-1.205.804-.026.027-.053.027-.08.054-.214.107-.428.214-.669.295-.027 0-.054.026-.081.026-.241.081-.482.134-.749.188-.027 0-.054 0-.081.027-.241.053-.508.08-.803.08h-.535c-.054 0-.108 0-.161-.027h-.054c-.053 0-.107-.026-.16-.026-.027 0-.081-.027-.107-.027-.027 0-.027 0-.054-.027-.134-.054-.241-.107-.348-.188 0 0-.027 0-.027-.026-.107-.081-.214-.161-.321-.268l-.054-.054c-.027-.027-.08-.054-.107-.107l-.053-.054-.108-.107-.026-.027c-.054-.053-.107-.134-.188-.187-.053-.054-.107-.108-.134-.188l-.053-.054c-.027-.053-.08-.08-.107-.134-.027-.026-.027-.053-.054-.08-.027-.054-.053-.08-.107-.134 0-.027-.027-.027-.027-.054-.053-.08-.107-.134-.16-.214-.215-.295-.402-.643-.616-.992-.375-.616-.723-1.286-1.071-1.956-.161-.268-.295-.536-.455-.804 0 0 0-.027-.027-.027-.054-.107-.134-.241-.188-.348v-.027s0-.027-.026-.027c-.054-.107-.134-.214-.188-.348 0-.027-.027-.027-.027-.054-.053-.107-.134-.214-.187-.321 0 0 0-.027-.027-.027v-.027c-.053-.107-.134-.214-.187-.295 0-.026-.027-.026-.027-.053-.054-.107-.134-.188-.188-.295v-.027l-.026-.027c-.081-.107-.134-.187-.215-.268v-.026c-.133-.188-.294-.349-.428-.51-.08-.08-.134-.134-.214-.187l-.027-.027c-.08-.054-.134-.107-.214-.161l-.027-.027c-.08-.053-.134-.08-.214-.134 0 0-.027 0-.027-.026-.08-.027-.134-.054-.214-.081h-.027c-.08-.027-.134-.027-.214-.053h-.241-.027c-.08 0-.161.026-.241.053-.161.054-.321.107-.455.134-.027 0-.054.027-.08.027-.027 0-.054.027-.081.027-.107.027-.214.08-.294.107-.054.027-.081.027-.134.054-.081.026-.188.08-.268.134-.027 0-.053.026-.053.026-.027 0-.027.027-.054.027-.134.054-.241.134-.348.188-.107.053-.188.107-.295.187-.053.054-.107.081-.16.134-.027.027-.054.054-.081.054-.08.08-.187.134-.267.214l-.081.081-.16.161-.081.08-.16.161s0 .027-.027.027l-.054.053c-.053.081-.134.161-.187.268-.107.161-.188.322-.268.483-.053.08-.08.16-.134.268 0 .026-.027.053-.027.08-.026.054-.053.107-.08.188v.026c0 .027-.027.054-.027.081-.026.053-.026.107-.053.161 0 .026-.027.08-.027.107-.027.053-.027.107-.054.161v.026c0 .027-.026.054-.026.108-.027.053-.027.107-.027.16v.054c0 .027 0 .054-.027.08 0 .054-.027.108-.027.188 0 .027-.026.08-.026.107 0 .054-.027.134-.027.188v.107c-.027.214-.054.456-.081.67v.053c-.026.215-.026.456-.053.67v.027c0 .161-.027.349-.027.509v.027c-.053.563-.08 1.126-.187 1.662-.027.187-.081.348-.107.536-.054.161-.081.348-.161.509-.054.188-.134.375-.241.563 0 .027-.027.053-.027.08l-.161.322c-.107.161-.214.321-.348.482-.026.027-.053.054-.053.081-.054.053-.107.107-.161.187l-.08.081-.161.16-.08.081c-.188.134-.375.295-.589.429-.027.026-.081.026-.107.053-.081.054-.161.081-.241.134-.054.027-.081.054-.134.054-.081.053-.188.08-.268.134-.027.027-.08.027-.107.053-.268.108-.562.215-.857.295-.053.027-.107.027-.161.054-.107.027-.214.053-.348.08-.053 0-.107.027-.16.027l-.402.08c-.054 0-.107.027-.161.027-.375.081-.776.134-1.231.161-.054 0-.134 0-.215.027-.16.027-.321.027-.482.027-.08 0-.16 0-.241.026-.16 0-.321.027-.508.027h-1.018c-.107 0-.214 0-.294-.027-.027 0-.054-.026-.081-.026-.053-.027-.134-.027-.187-.054-.027 0-.054-.027-.054-.027-.053-.027-.08-.053-.107-.053-.027-.027-.053-.027-.08-.054l-.08-.08c-.027-.027-.027-.054-.054-.081-.027-.027-.054-.08-.08-.134 0-.027-.027-.053-.027-.08-.027-.054-.027-.081-.054-.134 0-.027-.026-.054-.026-.081-.027-.16-.054-.321-.054-.509v-.241-.08c0-.054 0-.108.027-.188 0-.134.027-.268.053-.402 0-.054.027-.107.027-.188.027-.134.054-.268.08-.428 0-.081.027-.134.054-.215.054-.241.107-.482.134-.697 0-.026 0-.053.027-.107.026-.08.026-.134.053-.214 0-.027.027-.081.027-.107 0-.054.027-.134.027-.188 0-.054.027-.08.027-.134 0-.054.026-.134.026-.188 0-.053 0-.08.027-.134v-.026c0-.054.027-.108.027-.161 0-.027 0-.081.027-.107 0-.054 0-.134.026-.188v-.107-.134-.402-.081-.053c0-.054 0-.081-.026-.134v-.081c-.027-.08-.027-.16-.054-.214-.027-.08-.053-.161-.08-.214-.054-.134-.161-.268-.268-.349-.054-.053-.107-.08-.161-.134-.026 0-.026-.027-.053-.027l-.161-.08c-.027 0-.053-.027-.053-.027-.081-.027-.161-.053-.241-.053-.188-.027-.349-.054-.536-.081-.375-.053-.75-.08-1.125-.08h-.589c-.187 0-.375.027-.562.027-.053 0-.134 0-.187.026-.134 0-.268.027-.375.027-.081 0-.161.027-.214.027-.108.027-.241.027-.349.054-.08 0-.16.026-.241.026-.107.027-.241.027-.348.054-.08 0-.16.027-.241.054-.08 0-.134.026-.214.026-.053 0-.107.027-.161.027-.08.027-.16.027-.214.054l-.401.08c-.054.027-.134.027-.188.054-.401.08-.776.187-1.178.295-.054.026-.134.026-.187.053-.134.027-.268.081-.402.107l-.241.081c-.107.027-.241.08-.348.107l-.241.08c-.107.027-.241.081-.348.108l-.241.08c-.107.027-.241.08-.348.134-.081.027-.161.054-.215.08-.133.054-.24.081-.374.134-.054.027-.134.054-.188.081-.187.08-.348.134-.535.214h-.027c-.054.027-.08.027-.134.054-.134.053-.241.107-.375.161-.053.026-.08.026-.134.053-.134.054-.294.107-.428.188-.027 0-.054.027-.054.027-.16.053-.294.134-.455.187h-.027c-.053.027-.08.027-.107.054-.134.053-.268.107-.375.161-.026.026-.053.026-.08.053-.161.081-.295.134-.428.188-.027.027-.054.027-.108.053-.107.054-.241.108-.348.161-.026.027-.053.027-.08.054l-.321.161c-.027 0-.054.026-.081.026-.026 0-.053.027-.08.027l-.321.161c-.027.027-.054.027-.081.054l-.321.16s-.027 0-.027.027l-.026.027c-.054.027-.081.054-.108.054-.053.026-.107.053-.187.08-.027.027-.054.027-.08.054-.107.053-.215.107-.295.16-.107.054-.187.108-.268.161-.026.027-.053.027-.08.027-.054.027-.134.08-.187.107-.027 0-.054.027-.054.027-.08.054-.134.08-.214.134-11.38 6.834-5.061 12.998-9.506 14.123-11.059 2.814-22.412 13.266-20.671 20.047 4.204 16.294-9.265 12.247-4.713 27.576 1.339 4.556 3.481 11.792 9.881 15.678 5.649 3.457 9.719 1.313 12.183 4.637 3.695 5.011-.964 8.147.776 18.411 1.607 9.487 9.212 9.273 8.596 12.247-3.347 15.919 23.215 22.512 32.399 11.015 22.278-27.872-4.445-19.001-8.515-25.996-3.963-6.834 7.792-16.321 2.624-23.825-4.819-7.021-6.721-6.378-4.819-11.014 3.855-9.326 13.468-2.627 22.599-11.899 3.776-3.833-3.267-9.568 1.473-13.078 5.248-3.913 10.041-7.397 13.361-5.816 2.865 1.367 1.875 5.253 5.222 6.968 2.784 1.42 7.042.616 9.291-1.742 3.401-3.538-.027-8.201 2.33-13.373 3.507-7.718 14.78-.509 15.664-9.3.053-2.519-1.419-3.671-3.535-4.341z"/>
        <circle r="12.568" fill="#8F8F8F" fill-opacity=".4" transform="matrix(1 0 0 -1 136.568 207.648)"/>
        <path fill="#727272" d="M143.75 194.182c0-3.967-3.215-7.182-7.182-7.182-3.966 0-7.182 3.215-7.182 7.182 0 3.966 5.387 13.915 7.182 13.915 1.796 0 7.182-9.949 7.182-13.915z"/>
        <circle cx="136.568" cy="194.182" r="4.489" fill="#fff"/>
        <path fill="#4F4F4F" d="M134.512 211.876c1.776-.192 3.336-.828 3.996-1.884.648 1.056 2.22 1.692 3.996 1.884l.3-.768c-2.016-.168-3.648-.984-3.756-2.148h3.324v-.78H139v-1.092h-.984v1.092h-3.372v.78h3.312c-.108 1.164-1.74 1.98-3.744 2.148l.3.768zm6.672 4.212c0 .672-.984 1.044-2.688 1.044-1.704 0-2.688-.372-2.688-1.044 0-.66.984-1.044 2.688-1.044 1.704 0 2.688.384 2.688 1.044zm2.184-2.856v-.792h-9.732v.792h4.38v1.08c-2.028.084-3.204.708-3.204 1.776 0 1.164 1.368 1.788 3.696 1.788 2.304 0 3.672-.624 3.672-1.788 0-1.068-1.176-1.692-3.192-1.776v-1.08h4.38zm7.031-3.048V211h2.148v2.652h.996v-6.528h-.996v3.06h-2.148zm.648 2.244c-1.584-.468-2.7-1.668-2.7-3.012v-.204h2.376v-.792h-2.376v-1.356h-.984v1.356h-2.388v.792h2.388v.204c0 1.452-1.08 2.76-2.664 3.3l.48.756c1.272-.42 2.244-1.332 2.7-2.508.492 1.044 1.464 1.848 2.7 2.232l.468-.768zm-1.068 4.68c-1.62 0-2.592-.456-2.592-1.212 0-.744.972-1.2 2.592-1.2 1.644 0 2.616.456 2.616 1.2 0 .756-.984 1.212-2.616 1.212zm0-3.18c-2.208 0-3.576.72-3.576 1.968 0 1.26 1.368 1.98 3.576 1.98 2.232 0 3.6-.72 3.6-1.98 0-1.248-1.368-1.968-3.6-1.968zm13.223-3.312h-5.232v-1.248h5.232v1.248zm.972-3.24h-.972v1.224h-5.232v-1.224h-.972v4.02h7.176v-4.02zm1.272 5.82v-.804h-9.744v.804h4.38v1.26h-3.288v.792h6.468v2.652h.984v-3.444h-3.18v-1.26h4.38zm6.671 2.52v-2.76h3.276v-.792h-6.42v-3.372h6.312v-.804h-7.296v4.968h3.132v2.76h-4.38v.816h9.78v-.816h-4.404z"/>
        <path fill="#6FCFCA" d="M132.242 184.906c4.445-1.125-1.847-7.289 9.506-14.123.053-.027.134-.08.214-.134.027 0 .054-.027.054-.027.053-.027.107-.08.187-.107.027 0 .054-.027.08-.027.081-.053.188-.107.268-.161.107-.053.187-.107.295-.16.026-.027.053-.027.08-.054.053-.027.107-.054.187-.08.027-.027.081-.054.107-.054 0 0 .027 0 .027-.027 0 0 .027 0 .027-.027l.321-.16c.027-.027.054-.027.081-.054l.321-.161c.027 0 .054-.027.08-.027.027 0 .054-.026.081-.026l.321-.161c.027-.027.054-.027.08-.054.107-.053.241-.107.348-.161.027-.026.054-.026.108-.053.133-.054.294-.134.428-.188.027-.027.053-.027.08-.053.134-.054.241-.108.375-.161.027-.027.08-.027.107-.054h.027c.161-.053.295-.134.455-.187.027 0 .054-.027.054-.027.134-.054.294-.107.428-.188.054-.027.081-.027.134-.053.134-.054.241-.108.375-.161.053-.027.08-.027.134-.054h.027c.187-.08.348-.134.535-.214.054-.027.134-.054.188-.081.107-.053.214-.08.348-.134-6.48-1.742-5.945-8.522 8.809-28.3 17.11-15.919-25.17-21.868-26.294-32.16-.911-8.334 3.829-13.748 6.48-17.714 6.64-9.943-4.526-11.256-9.345-14.123-2.491-1.501 1.606-10.613-1.902-11.444-3.507-.804-6.908 7.29-10.737 6.54-5.677-1.153 1.928-13.4-2.865-15.973-12.933-6.915-7.926 14.713-20.698-2.412-1.018-1.367-.884-2.171-1.5-3.136-.562-.884-1.633-1.447-2.65-1.34-.991.107-2.116.295-3.856 1.742-3.428 2.84-7.712 23.101-22.975 28.756-6.078 2.251 1.5 17.554-4.552 19.993-5.73 2.304-10.014-1.233-12.96 1.795-3.507 3.591-2.115 13.32 3.24 17.661 6.427 5.199-2.704 13.105 1.071 17.581 2.758 3.269 18.61 2.036 9.399 7.075-11.273 6.137-2.222 16.723-1.5 21.841.67 4.717-.32 7.236 5.383 17.876 1.445 2.707 1.82 5.815 1.553 8.978 5.65 3.216.187 9.46 7.363 11.926 2.41.83 2.517-3.484 8.408-3.86 4.418-.294 6.266 2.868 10.63 2.064 3.374-.616 3.615-2.975 6.48-4.154 4.472-1.822 11.594.482 15.905 4.69 1.875-6.405 11.38-14.15 20.645-16.509z"/>
        <circle r="12.568" fill="#8F8F8F" fill-opacity=".4" transform="matrix(1 0 0 -1 105.568 167.648)"/>
        <path fill="#727272" d="M112.75 154.182c0-3.967-3.215-7.182-7.182-7.182-3.966 0-7.181 3.215-7.181 7.182 0 3.966 5.386 13.915 7.181 13.915 1.796 0 7.182-9.949 7.182-13.915z"/>
        <circle cx="105.568" cy="154.182" r="4.489" fill="#fff"/>
        <path fill="#4F4F4F" d="M111.508 169.908v1.44h-2.82v.804h2.82v1.416h.996v-6.432h-.996v1.968h-2.436c.072-.372.12-.768.12-1.164h-4.86v.792h3.792c-.18 1.86-1.776 3.288-4.344 4.056l.396.78c2.316-.672 3.948-1.932 4.644-3.66h2.688zm-2.52 7.164c-1.584 0-2.592-.492-2.592-1.308 0-.804 1.008-1.296 2.592-1.296s2.592.492 2.592 1.296c0 .816-1.008 1.308-2.592 1.308zm0-3.384c-2.172 0-3.564.78-3.564 2.076s1.392 2.076 3.564 2.076 3.564-.78 3.564-2.076-1.392-2.076-3.564-2.076zm6.323-5.4v.792h4.044c-.204 2.556-1.644 4.62-4.536 6l.528.804c3.576-1.752 5.004-4.488 5.004-7.596h-5.04zm7.212-1.164v10.764h.984v-10.764h-.984z"/>
        <path fill="#9EFCDE" d="M309.583 337.958c-.161.107-1.5.911-2.838 1.689-1.58.911-3.455 1.232-5.249.857l-6.185-1.286c-.134-.027-.295-.027-.428 0l-4.793.482c-1.018.107-1.875-.697-1.875-1.715v-1.93c0-1.018-.883-1.822-1.901-1.715-3.963.456-9.8-.241-13.308 2.225-1.258.884-2.356 2.251-1.874 3.805.268.804-.081 1.689-.83 2.064l-5.222 2.76c-.053.027-.134.054-.187.081-.429.696-.83.911-1.205.402-.75.16-1.5.16-2.249 0l-4.338-.965c-1.982-.429-4.017.214-5.409 1.688l-3.561 3.806c-.402.428-1.018.643-1.607.509-1.794-.375-5.543-1.179-6.399-1.179h-6.962c-.402 0-.777-.134-1.098-.402l-4.204-3.484c-2.169-1.796-4.927-2.787-7.765-2.787h-7.417c-.107 0-.215 0-.295-.027l-15.637-2.787c-.616-.108-1.125-.536-1.312-1.126-.911-2.653-3.481-10.023-4.044-11.711-.428-1.287-8.354-4.69-14.325-7.102-2.464-.992-3.776-4.047-4.579-7.263-1.687-1.152-4.204-.777-5.355 1.206l-1.232 2.09c-.027.027-.027.054-.054.081l-13.87 13.882c-.053.054-.107.134-.107.241l-2.517 21.199v.134c.188.964 2.731 13.426 1.848 15.007-.589 1.046-3.963 5.923-6.293 9.273-.187.268-.401.509-.642.697-.081.08-.134.188-.161.295-.027 1.956.134 3.939.482 5.896.884 4.716 1.794 9.728 1.928 10.505 0 .08.053.134.08.188l7.176 8.227.027.027 5.275 5.172c.107.108.134.242.107.376l-.83 3.215c-.482 1.823.428 3.699 2.142 4.476 2.464 1.126 5.57 2.439 5.382 1.903-.134-.429.804-1.823 1.848-3.163 1.365-1.768 3.106-3.216 5.087-4.234l2.839-1.474c2.169-1.125 4.766.456 4.766 2.921 0 2.037 1.017 3.913 2.704 5.039l3.91 2.572c1.365.885 3.106 1.019 4.579.322.535-.241.99-.536 1.285-.804.348-.348 1.178-.992 2.062-1.688 1.686-1.287 4.043-1.099 5.542.375l2.357 2.358c.482.483 1.044.831 1.66 1.072l4.177 1.554c1.285.483.616 9.702 1.258 10.908 1.286 2.519 5.945 3.243 7.337-7.236.134-1.072-1.151-8.656-1.901-12.891-.214-1.232.536-2.412 1.741-2.84.321-.108 1.713-.912 1.874-1.206.589-1.18-.964-6.271.321-10.693 1.232-4.208 5.382-1.903 8.114.187 1.178.911 2.865.268 3.159-1.179l.482-2.492c.348-1.742 2.33-2.6 3.856-1.635l8.033 5.172c.937.59 1.981.938 3.079 1.019 1.714.107 4.043.053 3.856-1.072-.295-1.796-1.767-6.245 0-5.95 1.767.295 4.82-1.34 5.918-2.09 3.829-2.546 1.097-4.288 8.461-6.271 2.276-.617-8.488 11.684-7.899 13.319.589 1.635 6.292-3.752 6.855-1.394 2.463 10.613 7.203-3.028 17.163-3.028 6.989 0 5.677-9.835 9.024-13.078 1.393-1.34-9.238-12.65-3.641-12.114 2.302.215 4.23.885 4.659 3.35.267 1.528 1.472 2.761 3.025 2.922 1.741.187 3.321-.938 4.124-3.216l2.303-7.102c.857-2.627 2.41-4.958 4.498-6.754l.375-.321c2.169-1.85 3.508-4.476 3.776-7.317l1.231-11.148c-.026.214-.107.268-.187.321z"/>
        <circle r="12.568" fill="#8F8F8F" fill-opacity=".4" transform="matrix(1 0 0 -1 188.568 361.648)"/>
        <path fill="#727272" d="M195.75 348.182c0-3.967-3.215-7.182-7.182-7.182-3.966 0-7.182 3.215-7.182 7.182 0 3.966 5.387 13.915 7.182 13.915 1.796 0 7.182-9.949 7.182-13.915z"/>
        <circle cx="188.568" cy="348.182" r="4.489" fill="#fff"/>
        <path fill="#4F4F4F" d="M194.508 363.908v1.44h-2.82v.804h2.82v1.416h.996v-6.432h-.996v1.968h-2.436c.072-.372.12-.768.12-1.164h-4.86v.792h3.792c-.18 1.86-1.776 3.288-4.344 4.056l.396.78c2.316-.672 3.948-1.932 4.644-3.66h2.688zm-2.52 7.164c-1.584 0-2.592-.492-2.592-1.308 0-.804 1.008-1.296 2.592-1.296s2.592.492 2.592 1.296c0 .816-1.008 1.308-2.592 1.308zm0-3.384c-2.172 0-3.564.78-3.564 2.076s1.392 2.076 3.564 2.076 3.564-.78 3.564-2.076-1.392-2.076-3.564-2.076zm11.903-1.5c-1.548-.528-2.604-1.872-2.604-3.324v-1.188h-.984v1.104c0 1.644-1.044 3.108-2.676 3.696l.516.78c1.26-.48 2.22-1.464 2.664-2.724.48 1.104 1.404 1.992 2.568 2.424l.516-.768zm-1.284 4.92c-1.596 0-2.568-.444-2.568-1.188 0-.756.972-1.2 2.568-1.2 1.584 0 2.556.444 2.556 1.2 0 .744-.972 1.188-2.556 1.188zm0-3.156c-2.196 0-3.552.708-3.552 1.968 0 1.248 1.356 1.956 3.552 1.956 2.184 0 3.54-.708 3.54-1.956 0-1.26-1.356-1.968-3.54-1.968zm3.42-4.044v-2.772h-.984v6.516h.984v-2.928h1.596v-.816h-1.596zm8.963 1.2c-1.716.336-3.252.444-4.776.456v-3.9h-.972v4.728h.84c1.608 0 3.216-.12 5.028-.48l-.12-.804zm-3.744 3.48h4.86v2.352h-4.86v-2.352zm-.96 3.144h6.78v-3.936h-6.78v3.936zm8.376-8.136h-1.596v-2.472h-.984v6.084h.984v-2.796h1.596v-.816zm6.455 6.12v-2.76h3.276v-.792h-6.42v-3.372h6.312v-.804h-7.296v4.968h3.132v2.76h-4.38v.816h9.78v-.816h-4.404z"/>
        <path fill="#00B497" d="M167.274 297.144c-7.819 5.092-20.833 3.108-26.563-3.645-.401 1.045-.99 2.063-1.794 3.028-3.213 3.886-9.318 5.95-12.692 3.886-2.115-1.286-1.606-3.296-3.882-7.262-.616-1.072-4.231-7.37-9.078-8.818-8.086-2.412-16.762 9.648-19.948 7.263-1.982-1.474 1.312-6.03-1.044-9.085-3.428-4.475-16.816-2.841-20.993 3.886-1.982 3.216-.375 5.172-2.598 7.772-2.517 2.975-7.818 4.207-12.263 3.296-2.865 1.635-6.159 4.583-5.757 9.541.375 4.556 5.489 4.958 10.229 4.315 1.338-.188 2.061 1.5 1.017 2.331-1.258 1.019-2.276 2.117-2.624 3.163-1.178 3.51 7.819 2.358 3.695 6.512-1.58 1.581-6.72-3.028-10.684-.67-1.874 1.099-1.874 2.867-1.365 4.449.535 1.608-.563 3.296-2.223 3.537-4.712.643-6.56 3.002-11.112 9.836-3.936 5.922 5.355 5.762 11.916 5.038 1.311-.161 1.927 1.581.803 2.305l-10.416 6.619s-12.773 8.174-7.712 11.685c6.989 4.824 13.254-3.162 14.03.536 2.01 9.407 1.768 10.907 6.293 9.299 24.42-8.763 2.357-13.748 15.317-17.178 14.245-3.779 10.496 10.318 17.672 10.291 5.195 0 1.553-8.415 7.631-5.253 6.025 3.109-1.419 7.048-.589 10.157 2.731 10.399 17.003 4.717 25.117 3.645 6.051-.804 9.853-4.1 12.183-4.797 2.276-.67 4.713.134 6.801 1.286l2.758 2.439c1.607 1.447 4.124 1.126 5.356-.643 2.356-3.377 5.703-8.228 6.292-9.273.937-1.635-1.848-15.061-1.848-15.061l2.544-21.386 14.004-14.017 5.597-9.567-1.393-7.022-2.677-2.438z"/>
        <circle r="12.568" fill="#8F8F8F" fill-opacity=".4" transform="matrix(1 0 0 -1 94.568 325.648)"/>
        <path fill="#727272" d="M101.75 312.182c0-3.967-3.215-7.182-7.182-7.182-3.966 0-7.181 3.215-7.181 7.182 0 3.966 5.386 13.915 7.181 13.915 1.796 0 7.182-9.949 7.182-13.915z"/>
        <circle cx="94.568" cy="312.182" r="4.489" fill="#fff"/>
        <path fill="#4F4F4F" d="M98.348 328.1v.804h2.16v4.116h.996v-7.884h-.996v2.964h-2.16zm.636 2.532c-1.56-.552-2.616-1.896-2.616-3.3v-.528h2.364V326h-5.748v.804h2.4v.54c0 1.524-1.116 2.952-2.712 3.528l.516.768c1.26-.456 2.244-1.452 2.712-2.676.468 1.104 1.392 2.004 2.592 2.436l.492-.768zm-3.372 4.212v-2.52h-.996v3.324h7.188v-.804h-6.192zm9.467-4.86h3.876v-3.864h-4.872v.804h3.9v2.256h-3.864v4.116h.852c2.052 0 3.492-.084 5.172-.384l-.108-.816c-1.608.312-3 .384-4.956.384v-2.496zm8.652-.588h-1.764v-4.284h-.984V335.9h.984v-5.676h1.764v-.828zm8.471-.78h-5.232v-1.248h5.232v1.248zm.972-3.24h-.972v1.224h-5.232v-1.224h-.972v4.02h7.176v-4.02zm1.272 5.82v-.804h-9.744v.804h4.38v1.26h-3.288v.792h6.468v2.652h.984v-3.444h-3.18v-1.26h4.38zm6.671 2.52v-2.76h3.276v-.792h-6.42v-3.372h6.312v-.804h-7.296v4.968h3.132v2.76h-4.38v.816h9.78v-.816h-4.404z"/>
        <path fill="#6FCFD8" d="M156.555 421.091s2.089-3.002 4.017-5.762c-.134-.054-.268-.107-.375-.188-1.526-.696-2.33-2.385-1.901-4.019l.99-3.752-5.435-5.36-7.257-8.335s-.99-5.494-1.954-10.613c-.375-2.01-.536-4.046-.482-6.083-1.339 1.018-3.267.991-4.579-.161l-2.758-2.439c-2.062-1.152-4.525-1.983-6.801-1.286-2.33.697-6.132 3.993-12.184 4.797-8.113 1.072-22.358 6.753-25.116-3.645-.83-3.109 6.614-7.048.59-10.157-6.08-3.135-2.438 5.253-7.632 5.253-7.15 0-3.428-14.07-17.673-10.291-12.96 3.43 9.078 8.415-15.316 17.178-4.498 1.608-4.284.134-6.292-9.299-.723-3.404-6.079 3.109-12.398.375-1.848 2.734-4.097 5.708-4.9 5.038 2.223 4.181.08 6.513-2.758 9.702-.241 5.145 13.04 14.793 7.578 20.904-3.428 1.929-7.631-6.754-10.229-8.603-.91-1.286-4.07.563-5.275.429-2.222.509-.67 8.361 1.982 5.869 1.633-2.01 5.864 3.725 7.042 4.368 11.62 10.934-4.124 30.766 10.202 24.709 9.532 4.288 3.16 4.208 3.588 8.844.428.885 3.026 3.538 2.303 4.637-.857 1.018-1.955 6.378-4.15 4.743-4.713-1.822-2.036-6.861-5.383-5.655-4.632 1.34-.455 5.494.509 7.933.75 3.297-4.74 2.734-7.819-.134-2.356-3.457-1.74-7.209-2.704-8.201-2.839-3.108-7.337-4.636-4.392 1.394-2.383 2.037 2.357 8.871 2.705 10.961 4.686 8.951 26.642-1.259 16.574 7.986-4.016 7.263-5.328 3.511.402 10.908-1.205 3.296-1.981 5.521 1.74 7.289 1.741 1.287 1.741 7.156 3.696 4.958 6.801-4.69 8.06-14.498 13.495-18.116 4.579-1.179 4.017-7.558 4.606-10.988 5.944-2.573 4.07 7.075 4.123 10.023.429.804 7.846 5.119 8.515 4.529 6.293-4.797 7.176-6.861 6.909-14.82 5.997-7.316 6.4-8.12 15.503-11.524 1.259-.616 6.828-14.204 9.077-10.05 7.712 10.211-5.462 17.742-4.284 25.647 1.312.161 11.327 10.131 12.478 6.995.161-.268 6.373-12.596 6.667-12.167.884-.991 10.095-2.975 8.569-5.387-.054-.964-10.818-19.885-8.595-20.314 1.338-.161 10.978-10.237 12.076-6.7 6.962 16.884 7.952 28.89 14.539 6.647-11.139-6.888 4.445-5.307 8.167-8.067z"/>
        <circle r="12.568" fill="#8F8F8F" fill-opacity=".4" transform="matrix(1 0 0 -1 73.568 402.648)"/>
        <path fill="#727272" d="M80.75 389.182c0-3.967-3.215-7.182-7.182-7.182-3.966 0-7.181 3.215-7.181 7.182 0 3.966 5.386 13.915 7.181 13.915 1.796 0 7.182-9.949 7.182-13.915z"/>
        <circle cx="73.568" cy="389.182" r="4.489" fill="#fff"/>
        <path fill="#4F4F4F" d="M78.348 405.1v.804h2.16v4.116h.996v-7.884h-.996v2.964h-2.16zm.636 2.532c-1.56-.552-2.616-1.896-2.616-3.3v-.528h2.364V403h-5.748v.804h2.4v.54c0 1.524-1.116 2.952-2.712 3.528l.516.768c1.26-.456 2.244-1.452 2.712-2.676.468 1.104 1.392 2.004 2.592 2.436l.492-.768zm-3.372 4.212v-2.52h-.996v3.324h7.188v-.804h-6.192zm9.467-4.86h3.876v-3.864h-4.872v.804h3.9v2.256H84.12v4.116h.852c2.052 0 3.492-.084 5.172-.384l-.108-.816c-1.608.312-3 .384-4.956.384v-2.496zm8.652-.588h-1.764v-4.284h-.984V412.9h.984v-5.676h1.764v-.828zm7.259-.288c-1.716.336-3.252.444-4.776.456v-3.9h-.972v4.728h.84c1.608 0 3.216-.12 5.028-.48l-.12-.804zm-3.744 3.48h4.86v2.352h-4.86v-2.352zm-.96 3.144h6.78v-3.936h-6.78v3.936zm8.376-8.136h-1.596v-2.472h-.984v6.084h.984v-2.796h1.596v-.816zm6.455 6.12v-2.76h3.276v-.792h-6.42v-3.372h6.312v-.804h-7.296v4.968h3.132v2.76h-4.38v.816h9.78v-.816h-4.404z"/>
        <path fill="#9EFCDE" d="M84.74 49.595c1.607-1.554 4.927-2.52 5.302-.375 6.668 27.014 12.237-1.287 22.359 5.735 4.793 2.573-2.33 14.15 3.347 15.302 3.856.778 7.256-7.343 10.737-6.539 3.508.804-.589 9.943 1.901 11.444 4.82 2.867 15.986 4.18 9.345 14.123-2.651 3.966-7.39 9.38-6.48 17.715 1.125 10.264 43.271 16.24 26.348 32.079-29.909 42.209-.08 19.912 1.875 29.694-2.169 5.681 2.597 4.958 6.426 3.671 4.177-1.447 2.544-6.405 3.99-9.567 4.418-6.78 7.444 1.769 9.907 5.306 5.704 4.503 9.399-7.075 15.664-5.842 3.321.348 13.496 1.313 11.996 5.869-1.365 1.796-6.426 2.171-5.676 4.744 5.221 2.599 12.13-.081 15.664 5.601 4.043 1.822 13.308 2.385 12.531 6.03.081-1.34-.053-2.573-.241-3.833 4.365-5.011 5.784 6.486 12.666 2.654 1.633-.563 2.303-2.466 1.419-4.02-1.232-3.565 4.097-3.994 6.319-4.69 1.607-.295 7.31 3.242 8.783 3.644 4.525.67 16.869 1.608 21.18 3.27 3.669 2.278-6.453 9.541-5.677 11.39 2.892 7.128 8.274 9.728 15.772 10.988 3.588.777.776 16.401 1.633 18.652 11.782 5.735 15.879 4.476 15.825-8.147-5.435-18.224-7.631-39.101-11.594-56.869-.321-1.447-1.098-2.76-2.169-3.779-4.284-4.073-6.292-9.674-10.041-14.016-8.006-2.438-12.344-17.607-14.647-26.746-.937-3.725-2.785-7.155-5.382-9.942-20.163-21.654-32.882-44.166-45.681-73.485-5.623-8.093-3.561-11.685-4.043-12.703-.536-1.233-4.525-8.281-6.614-11.685-.669-.697-1.767.161-1.633.43-4.686 7.315-8.006 22.672-10.256 27.388-11.165 8.201-39.308 2.841-51.009 2.064-11.219 3.323-15.798 2.6-27.151.08-6.212.697-20.217 5.548-23.35 5.575-4.846.75-17.913-5.575-16.2-1.18.965.697 3.482 13.668 6.856 9.97z"/>
        <circle r="12.568" fill="#8F8F8F" fill-opacity=".4" transform="matrix(1 0 0 -1 206.568 111.648)"/>
        <path fill="#727272" d="M213.75 98.182c0-3.967-3.215-7.182-7.182-7.182-3.966 0-7.182 3.215-7.182 7.182 0 3.966 5.387 13.915 7.182 13.915 1.796 0 7.182-9.949 7.182-13.915z"/>
        <circle cx="206.568" cy="98.181" r="4.489" fill="#fff"/>
        <path fill="#4F4F4F" d="M212.116 110.928v.792h3.9c-.18 1.86-1.8 3.324-4.356 4.08l.396.792c3.12-.924 5.028-2.928 5.028-5.664h-4.968zm4.5 9.168c-1.548 0-2.532-.492-2.532-1.308 0-.828.984-1.32 2.532-1.32s2.532.492 2.532 1.32c0 .816-.984 1.308-2.532 1.308zm0-3.396c-2.124 0-3.504.78-3.504 2.088 0 1.296 1.38 2.088 3.504 2.088s3.504-.792 3.504-2.088c0-1.308-1.38-2.088-3.504-2.088zm3.372-3.792v-2.784h-.984v6.432h.984v-2.832h1.596v-.816h-1.596zm8.327 3.576v.732h2.184v1.104h.984v-8.196h-.984v6.36h-2.184zm-2.196-5.196c1.02 0 1.716.456 1.716 1.14 0 .696-.696 1.152-1.716 1.152s-1.716-.456-1.716-1.152c0-.684.696-1.14 1.716-1.14zm0 3.024c1.572 0 2.652-.732 2.652-1.884 0-1.128-1.08-1.872-2.652-1.872s-2.652.744-2.652 1.872c0 1.152 1.08 1.884 2.652 1.884zm-.384 3.624h.984v-2.124c.972-.06 1.968-.168 2.916-.312l-.084-.708c-2.28.288-4.944.312-6.936.312l.132.816c.888 0 1.92-.012 2.988-.06v2.076zm-.6 1.908v-2.328h-.984v3.132h7.608v-.804h-6.624zm13.943-1.128v-2.76h3.276v-.792h-6.42v-3.372h6.312v-.804h-7.296v4.968h3.132v2.76h-4.38v.816h9.78v-.816h-4.404z"/>
        <path fill="#39F0A2" d="M89.32 105.836l-5.47 1.055c-2.066 1.245-3.672 3.13-4.59 5.355-.688 1.622-1.912 3.696-4.169 5.656-4.743 4.186-2.715-3.243-10.862 2.527-3.596 3.356 1.53 8.937 4.743 11.841 1.3 1.206 2.906 2.036 4.628 2.488l19.047 6.939c4.896 1.244 10.518-1.433 11.551-6.373 1.568-7.693 8.72-9.616 6.311-13.311-.115-.151-5.699-4.789-6.503-7.165-.573-1.772-1.376-3.432-2.371-5.015l-4.13-6.675c-.69-1.093-1.798-1.885-3.099-2.111-2.945-.491-2.18 3.016-5.087 4.789z"/>
        <circle r="12.568" fill="#8F8F8F" fill-opacity=".4" transform="matrix(1 0 0 -1 80.568 119.648)"/>
        <path fill="#727272" d="M87.75 106.182c0-3.967-3.215-7.182-7.182-7.182-3.966 0-7.181 3.215-7.181 7.182 0 3.966 5.386 13.915 7.181 13.915 1.796 0 7.182-9.949 7.182-13.915z"/>
        <circle cx="80.568" cy="106.182" r="4.489" fill="#fff"/>
        <path fill="#4F4F4F" d="M82.404 120.048h-.984v1.932c0 1.992-1.224 4.068-2.784 4.848l.6.78c1.212-.648 2.208-2.004 2.676-3.6.492 1.512 1.476 2.796 2.7 3.408l.576-.78c-1.56-.744-2.784-2.7-2.784-4.656v-1.932zm4.116-.924v3.648h-2.496v.804h2.496v6.324h.984v-10.776h-.984zm8.015.864c1.764 0 2.772.408 2.772 1.128s-1.008 1.128-2.772 1.128c-1.764 0-2.772-.408-2.772-1.128s1.008-1.128 2.772-1.128zm0 2.988c2.376 0 3.78-.648 3.78-1.86 0-1.212-1.404-1.872-3.78-1.872-2.364 0-3.78.66-3.78 1.872 0 1.212 1.416 1.86 3.78 1.86zm4.86 1.5v-.792h-9.72v.792h4.368v1.008h-3.192v.744h6.336v.96h-6.312v2.58h7.608V129h-6.648v-1.092h6.324v-2.424h-3.132v-1.008h4.368z"/>
        <path fill="#FFFF97" d="M138.294 283.529c.615-3.002-6.989-2.76-8.596-12.248-1.74-10.264 2.919-13.399-.776-18.411-2.464-3.323-6.534-1.206-12.184-4.636-6.399-3.913-8.515-11.149-9.88-15.705-4.525-15.329 8.916-11.283 4.713-27.577-.268-1.098-.215-2.278.107-3.484-4.311-4.207-11.434-6.512-15.906-4.69-2.865 1.153-3.106 3.538-6.48 4.154-4.364.778-6.212-2.358-10.63-2.063-5.89.375-6.158 5.065-8.408 3.859-9.72-5.199 1.848-9.755-12.585-13.989-5.007-1.474-.883 10.344-14.245-8.308-.723-1.019-2.249 1.742-2.597 3.108-.535 2.118 1.044 3.377 1.553 5.709.99 4.502-2.704 9.862-4.418 9.594-2.25-.375-.455-10.532-4.927-12.462-1.767-.75-4.391-.161-5.195 1.287-1.66 3.001 5.543 7.503 4.15 11.657-1.177 3.565-8.086 5.253-9.853 3.377-1.526-1.635 1.178-5.547-.268-6.753-1.446-1.18-5.462 1.554-6.212 2.063-1.178.804-16.146 15.624-8.649 17.34 10.818 2.492-.214 4.556 5.677 6.78 11.112 4.207 6.025 4.958 9.934 3.886 3.48-.965 4.552-9.621 4.23-7.209-1.017 7.906 3.16 11.363 5.945 9.38 2.089-1.474 2.597-6.03 4.23-6.191 1.634-.161-.16 2.492 1.232 4.047 7.096 7.852-1.365 3.001-2.784 5.869-3.4 6.887 2.276 15.678 1.66 18.492-.937 4.153.696 5.895 1.82 9.085 1.5 4.288 2.41 4.1 2.839 6.753.536 3.162-.723 4.02-2.062 11.926-.75 4.422-.67 5.923.268 6.753 1.205 1.072 2.65-.053 4.659.51 3.936 1.125 3.186 6.78 6.989 10.103 4.471 3.886 13.549 3.162 17.11-1.045 2.196-2.6.616-4.583 2.597-7.772 4.15-6.753 17.539-8.361 20.993-3.886 2.33 3.055-.937 7.611 1.044 9.085 3.187 2.385 11.862-9.675 19.949-7.263 4.846 1.448 8.461 7.746 9.077 8.818 2.276 3.966 1.767 5.949 3.883 7.262 3.373 2.064 9.479 0 12.692-3.886.803-.964 1.365-1.983 1.794-3.028-2.223-2.68-3.347-6.164-2.49-10.291z"/>
        <circle r="12.568" fill="#8F8F8F" fill-opacity=".4" transform="matrix(1 0 0 -1 64.568 240.648)"/>
        <path fill="#727272" d="M71.75 227.182c0-3.967-3.215-7.182-7.182-7.182-3.966 0-7.181 3.215-7.181 7.182 0 3.966 5.386 13.915 7.181 13.915 1.796 0 7.182-9.949 7.182-13.915z"/>
        <circle cx="64.568" cy="227.182" r="4.489" fill="#fff"/>
        <path fill="#4F4F4F" d="M63.512 244.876c1.776-.192 3.336-.828 3.996-1.884.648 1.056 2.22 1.692 3.996 1.884l.3-.768c-2.016-.168-3.648-.984-3.756-2.148h3.324v-.78H68v-1.092h-.984v1.092h-3.372v.78h3.312c-.108 1.164-1.74 1.98-3.744 2.148l.3.768zm6.672 4.212c0 .672-.984 1.044-2.688 1.044-1.704 0-2.688-.372-2.688-1.044 0-.66.984-1.044 2.688-1.044 1.704 0 2.688.384 2.688 1.044zm2.184-2.856v-.792h-9.732v.792h4.38v1.08c-2.028.084-3.204.708-3.204 1.776 0 1.164 1.368 1.788 3.696 1.788 2.304 0 3.672-.624 3.672-1.788 0-1.068-1.176-1.692-3.192-1.776v-1.08h4.38zm7.031-3.048V244h2.148v2.652h.996v-6.528h-.996v3.06H79.4zm.648 2.244c-1.584-.468-2.7-1.668-2.7-3.012v-.204h2.376v-.792h-2.376v-1.356h-.984v1.356h-2.388v.792h2.388v.204c0 1.452-1.08 2.76-2.664 3.3l.48.756c1.272-.42 2.244-1.332 2.7-2.508.492 1.044 1.464 1.848 2.7 2.232l.468-.768zm-1.068 4.68c-1.62 0-2.592-.456-2.592-1.212 0-.744.972-1.2 2.592-1.2 1.644 0 2.616.456 2.616 1.2 0 .756-.984 1.212-2.616 1.212zm0-3.18c-2.208 0-3.576.72-3.576 1.968 0 1.26 1.368 1.98 3.576 1.98 2.232 0 3.6-.72 3.6-1.98 0-1.248-1.368-1.968-3.6-1.968zm12.011-2.82c-1.716.336-3.252.444-4.776.456v-3.9h-.972v4.728h.84c1.608 0 3.216-.12 5.028-.48l-.12-.804zm-3.744 3.48h4.86v2.352h-4.86v-2.352zm-.96 3.144h6.78v-3.936h-6.78v3.936zm8.376-8.136h-1.596v-2.472h-.984v6.084h.984v-2.796h1.596v-.816zm6.455 6.12v-2.76h3.276v-.792h-6.42v-3.372h6.312v-.804h-7.296v4.968h3.132v2.76h-4.38v.816h9.78v-.816h-4.404z"/>
    </g>
    <defs>
        <clipPath id="clip0">
            <path fill="#fff" d="M0 0H312V481H0z" transform="translate(5 5)"/>
        </clipPath>
        <filter id="filter0_d" width="336" height="505" x="0" y="0" color-interpolation-filters="sRGB" filterUnits="userSpaceOnUse">
            <feFlood flood-opacity="0" result="BackgroundImageFix"/>
            <feColorMatrix in="SourceAlpha" values="0 0 0 0 0 0 0 0 0 0 0 0 0 0 0 0 0 0 127 0"/>
            <feOffset dx="7" dy="7"/>
            <feGaussianBlur stdDeviation="6"/>
            <feColorMatrix values="0 0 0 0 0.699306 0 0 0 0 0.839167 0 0 0 0 0.883333 0 0 0 1 0"/>
            <feBlend in2="BackgroundImageFix" result="effect1_dropShadow"/>
            <feBlend in="SourceGraphic" in2="effect1_dropShadow" result="shape"/>
        </filter>
    </defs>
</svg>
