<svg xmlns="http://www.w3.org/2000/svg" width="85" height="25" fill="none" viewBox="0 0 85 25">
    <path fill="#6FCF97" d="M.12 3.826c0-.187.06-.336.182-.448.13-.112.29-.168.476-.168h15.078c.168 0 .317.051.448.154.13.103.205.257.224.462v3.486c0 .168-.06.331-.182.49-.112.15-.275.224-.49.224h-4.83v15.316c0 .168-.06.322-.182.462-.121.13-.28.196-.476.196H6.252c-.159 0-.308-.06-.448-.182-.14-.13-.21-.29-.21-.476V8.026H.778c-.187 0-.345-.06-.476-.182C.181 7.723.12 7.545.12 7.312V3.826zm16.408 3.43c0-.177.033-.331.098-.462.066-.13.15-.238.252-.322.112-.084.234-.145.364-.182.14-.047.276-.07.406-.07h2.114c.234 0 .42.07.56.21.14.14.257.317.35.532.103.215.192.453.266.714.075.261.164.513.266.756.28-.308.556-.611.826-.91.28-.299.58-.565.896-.798.318-.233.663-.42 1.036-.56.383-.15.817-.224 1.302-.224.504 0 .952.037 1.344.112.402.075.78.187 1.134.336.355.14.705.322 1.05.546.355.224.738.485 1.148.784.402.233.602.509.602.826 0 .205-.079.443-.238.714l-1.274 2.17c-.252.364-.564.546-.938.546-.186 0-.396-.051-.63-.154-.4-.392-.812-.681-1.232-.868-.41-.196-.882-.294-1.414-.294-.364 0-.686.051-.966.154-.27.103-.518.247-.742.434-.224.187-.434.41-.63.672-.196.261-.392.55-.588.868v10.136c0 .355-.088.625-.266.812-.168.177-.452.266-.854.266h-3.15c-.728 0-1.092-.36-1.092-1.078V7.256zm31.194 15.708c0 .159-.028.313-.084.462-.056.14-.15.252-.28.336-.103.103-.224.168-.364.196-.14.028-.262.042-.364.042h-2.758c-.196 0-.355-.023-.476-.07-.122-.056-.22-.13-.294-.224-.075-.093-.14-.205-.196-.336-.047-.14-.098-.29-.154-.448l-.182-.63c-.252.252-.542.5-.868.742-.318.243-.672.462-1.064.658-.383.187-.798.336-1.246.448-.439.121-.896.182-1.372.182-.85 0-1.666-.107-2.45-.322-.775-.215-1.503-.518-2.184-.91-.672-.401-1.284-.877-1.834-1.428-.55-.56-1.027-1.18-1.428-1.862-.392-.681-.696-1.414-.91-2.198-.215-.793-.322-1.62-.322-2.478 0-1.297.238-2.501.714-3.612.476-1.12 1.124-2.09 1.946-2.912.821-.83 1.787-1.48 2.898-1.946 1.11-.476 2.3-.714 3.57-.714.578 0 1.115.065 1.61.196.504.13.961.308 1.372.532.42.224.798.495 1.134.812.336.308.63.644.882 1.008l.406-1.274.224-.56c.065-.15.13-.257.196-.322.074-.075.163-.121.266-.14.102-.028.247-.042.434-.042h2.086c.102 0 .224.014.364.042.14.028.261.093.364.196.13.103.224.22.28.35.056.13.084.28.084.448v15.778zm-13.79-7.84c0 .616.093 1.195.28 1.736.196.532.471.994.826 1.386.354.392.78.705 1.274.938.504.224 1.06.336 1.666.336.625 0 1.204-.112 1.736-.336.541-.233 1.008-.546 1.4-.938.401-.392.714-.854.938-1.386.224-.541.336-1.12.336-1.736 0-.597-.112-1.167-.336-1.708-.224-.541-.537-1.017-.938-1.428-.392-.41-.859-.733-1.4-.966-.532-.243-1.11-.364-1.736-.364-.607 0-1.162.121-1.666.364-.495.233-.92.555-1.274.966-.355.41-.63.887-.826 1.428-.187.541-.28 1.11-.28 1.708zM47.09 7.606c-.187-.383-.224-.71-.112-.98.121-.27.401-.406.84-.406h3.584c.243 0 .453.065.63.196.187.13.317.317.392.56.159.495.331 1.05.518 1.666.196.616.397 1.25.602 1.904.215.644.425 1.288.63 1.932.205.635.392 1.223.56 1.764.177.532.331.999.462 1.4.14.392.243.672.308.84l2.968-9.506c.121-.299.257-.5.406-.602.159-.103.378-.154.658-.154h3.682c.27 0 .476.033.616.098s.233.154.28.266c.047.112.056.243.028.392-.028.14-.075.29-.14.448l-6.664 15.974c-.103.168-.224.313-.364.434-.14.112-.35.168-.63.168h-1.666c-.373 0-.64-.051-.798-.154-.15-.112-.261-.261-.336-.448L47.09 7.606zm30.321 14.266c-.821.756-1.745 1.349-2.772 1.778-1.026.42-2.114.63-3.262.63-1.278 0-2.487-.233-3.626-.7-1.139-.467-2.137-1.11-2.996-1.932-.858-.83-1.54-1.806-2.044-2.926s-.756-2.338-.756-3.654c0-.821.098-1.615.294-2.38.206-.775.49-1.498.854-2.17.373-.672.822-1.288 1.344-1.848.532-.57 1.125-1.055 1.778-1.456.654-.401 1.363-.714 2.128-.938.766-.224 1.573-.336 2.422-.336.775 0 1.526.103 2.254.308.728.205 1.41.495 2.044.868.644.373 1.232.821 1.764 1.344.532.523.99 1.097 1.372 1.722.383.616.677 1.279.882 1.988.215.7.322 1.423.322 2.17 0 .485-.01.882-.028 1.19-.01.308-.08.555-.21.742-.13.177-.35.303-.658.378-.298.065-.742.098-1.33.098h-10.08c.094.597.28 1.097.56 1.498.29.401.62.723.994.966.373.233.77.401 1.19.504.42.103.817.154 1.19.154.336 0 .681-.033 1.036-.098.355-.075.695-.168 1.022-.28.336-.121.64-.257.91-.406.28-.159.504-.322.672-.49.15-.121.276-.21.378-.266.112-.065.229-.098.35-.098.121 0 .243.042.364.126.13.084.276.205.434.364l1.484 1.68c.103.121.168.233.196.336.028.093.042.191.042.294 0 .187-.051.35-.154.49-.103.13-.224.247-.364.35zM70.677 10.21c-.364 0-.719.075-1.064.224-.336.14-.653.331-.952.574-.299.243-.57.518-.812.826-.233.308-.425.62-.574.938h7.154c-.196-.364-.41-.7-.644-1.008-.224-.308-.485-.579-.784-.812-.29-.233-.625-.415-1.008-.546-.373-.13-.812-.196-1.316-.196zm8.862-8.204c0-.299.075-.55.224-.756.15-.205.406-.308.77-.308h3.43c.094 0 .192.028.294.084.103.047.196.117.28.21.094.093.168.205.224.336.066.13.098.275.098.434v20.916c0 .355-.102.625-.308.812-.196.177-.452.266-.77.266h-3.248c-.364 0-.62-.089-.77-.266-.149-.187-.224-.457-.224-.812V2.006z"/>
</svg>
