<svg xmlns="http://www.w3.org/2000/svg" width="22" height="23" fill="none" viewBox="0 0 22 23">
    <path stroke="#4F4F4F" stroke-linecap="round" stroke-linejoin="round" stroke-width="2" d="M20.44 10.662l-9.19 9.19c-1.126 1.126-2.653 1.759-4.245 1.759s-3.12-.633-4.245-1.759c-1.126-1.126-1.758-2.653-1.758-4.245s.632-3.119 1.758-4.245l9.19-9.19C12.7 1.422 13.719 1 14.78 1c1.062 0 2.08.422 2.83 1.172s1.172 1.769 1.172 2.83c0 1.062-.421 2.08-1.172 2.83l-9.2 9.19c-.375.376-.884.586-1.415.586-.53 0-1.04-.21-1.415-.586-.375-.375-.586-.884-.586-1.415 0-.53.21-1.04.586-1.415l8.49-8.48"/>
</svg>
